<svg xmlns="http://www.w3.org/2000/svg" viewBox="0 0 16.933 16.933" height="64" width="64"><defs><linearGradient id="a"><stop offset="0" style="stop-color:#0083ff;stop-opacity:1"/><stop offset="1" style="stop-color:#fff;stop-opacity:1"/></linearGradient></defs><path transform="scale(.26458)" d="M53.303 10.25A30.447 30.447 0 0 0 32 1.555a30.447 30.447 0 0 0-.125 0A30.447 30.447 0 0 0 1.555 32a30.447 30.447 0 0 0 8.695 21.303l2.242-2.24A27.275 27.275 0 0 1 4.725 32 27.275 27.275 0 0 1 32 4.725a27.275 27.275 0 0 1 19.063 7.767l2.24-2.242z" style="opacity:1;fill:red;fill-opacity:1;stroke:none;stroke-width:2.7794;stroke-linecap:round;stroke-linejoin:round;paint-order:stroke fill markers"/><path transform="scale(.26458)" d="m53.303 10.25-2.24 2.242A27.275 27.275 0 0 1 59.275 32 27.275 27.275 0 0 1 32 59.275a27.275 27.275 0 0 1-19.508-8.212l-2.242 2.24A30.447 30.447 0 0 0 32 62.445 30.447 30.447 0 0 0 62.445 32a30.447 30.447 0 0 0-9.142-21.75z" style="opacity:1;fill:red;fill-opacity:1;stroke:none;stroke-width:2.7794;stroke-linecap:round;stroke-linejoin:round;paint-order:stroke fill markers"/><path d="m2.712 14.103 11.39-11.391" style="fill:none;stroke:red;stroke-width:1.00539687;stroke-linecap:round;stroke-linejoin:round;stroke-opacity:1;stroke-miterlimit:4;stroke-dasharray:none"/></svg>