<svg xmlns="http://www.w3.org/2000/svg" width="64" height="64" viewBox="0 0 16.933 16.933"><defs><linearGradient id="a"><stop style="stop-color:#0083ff;stop-opacity:1" offset="0"/><stop style="stop-color:#fff;stop-opacity:1" offset="1"/></linearGradient><path id="b" d="M-19.176-3.18h17.305v20.673h-17.305z"/></defs><path style="opacity:1;fill:red;fill-opacity:1;stroke:none;stroke-width:2.7794;stroke-linecap:round;stroke-linejoin:round;paint-order:stroke fill markers" d="M53.303 10.25A30.447 30.447 0 0 0 32 1.555a30.447 30.447 0 0 0-.125 0A30.447 30.447 0 0 0 1.555 32a30.447 30.447 0 0 0 8.695 21.303l2.242-2.24A27.275 27.275 0 0 1 4.725 32 27.275 27.275 0 0 1 32 4.725a27.275 27.275 0 0 1 19.063 7.767l2.24-2.242z" transform="scale(.26458)"/><path style="opacity:1;fill:red;fill-opacity:1;stroke:none;stroke-width:2.7794;stroke-linecap:round;stroke-linejoin:round;paint-order:stroke fill markers" d="m53.303 10.25-2.24 2.242A27.275 27.275 0 0 1 59.275 32 27.275 27.275 0 0 1 32 59.275a27.275 27.275 0 0 1-19.508-8.212l-2.242 2.24A30.447 30.447 0 0 0 32 62.445 30.447 30.447 0 0 0 62.445 32a30.447 30.447 0 0 0-9.142-21.75z" transform="scale(.26458)"/><path style="fill:none;stroke:red;stroke-width:1.00539687;stroke-linecap:round;stroke-linejoin:round;stroke-opacity:1;stroke-miterlimit:4;stroke-dasharray:none" d="m2.712 14.103 11.39-11.391"/><text transform="translate(27.918 11.87) scale(.81861)" style="font-style:normal;font-weight:400;font-size:10.5831px;line-height:1.25;font-family:sans-serif;white-space:pre;shape-inside:url(#b);fill:maroon;fill-opacity:1;stroke:none" xml:space="preserve"><tspan x="-19.176" y="6.184"><tspan style="fill:maroon">1</tspan></tspan></text></svg>