<svg xmlns="http://www.w3.org/2000/svg" width="64" height="64" viewBox="0 0 16.933 16.933"><path style="fill:navy;stroke:none;stroke-width:.203;stroke-linecap:round;stroke-linejoin:round;paint-order:stroke fill markers;stroke-miterlimit:4;stroke-dasharray:none" d="M30.6 39.644c-3.94-.746-6.679-4.34-6.336-8.312.268-3.098 2.32-5.684 5.31-6.693 2.797-.944 5.937-.184 7.955 1.924 1.45 1.514 2.118 3.044 2.222 5.087.072 1.404-.155 2.475-.803 3.786-1.534 3.107-4.982 4.846-8.347 4.208z" transform="scale(.26458)"/><path style="fill:#00f;stroke:none;stroke-width:.203331;stroke-linecap:round;stroke-linejoin:round;paint-order:stroke fill markers" d="M29.469 49.632c-4.603-.548-7.51-1.393-11.084-3.223-4.779-2.448-8.75-6.094-11.638-10.685-.943-1.5-1.905-3.39-1.905-3.744 0-.72 2.31-4.558 4.033-6.7.883-1.098 3.523-3.703 4.597-4.537 4.954-3.845 10.426-5.943 16.734-6.413 3.366-.251 7.136.219 10.735 1.338 4.6 1.43 8.524 3.82 12.059 7.345 2.056 2.05 3.19 3.483 4.616 5.835.872 1.44 1.532 2.803 1.532 3.168 0 .672-1.923 4.023-3.411 5.945-4.229 5.461-9.945 9.215-16.586 10.89-2.277.574-3.894.766-6.735.796-1.418.016-2.744.009-2.947-.015zm5.42-5.605c1.493-.4 2.73-.944 3.885-1.706 2.846-1.88 4.73-4.721 5.371-8.1.237-1.25.215-3.34-.05-4.641-.516-2.53-1.613-4.56-3.44-6.363-2.487-2.455-5.519-3.615-9.116-3.488-2.57.09-4.48.706-6.49 2.093-3.433 2.367-5.37 6.04-5.367 10.181.001 2.027.375 3.64 1.262 5.448 1.672 3.408 4.804 5.831 8.63 6.677 1.266.28 4.092.226 5.315-.101z" transform="scale(.26458)"/><path d="m1.972 14.958 13-13" style="fill:none;stroke:red;stroke-width:.906837;stroke-linecap:round;stroke-linejoin:round;stroke-miterlimit:4;stroke-dasharray:none;stroke-opacity:1"/></svg>