<svg xmlns="http://www.w3.org/2000/svg" width="128" height="128" viewBox="0 0 33.867 33.867"><g style="display:inline;mix-blend-mode:normal"><g transform="matrix(.0594 0 0 .0594 34.79 2.314)"><ellipse style="fill:#ff0;fill-opacity:1;stroke:#000;stroke-width:18.3564;stroke-miterlimit:4;stroke-dasharray:none;stroke-opacity:1" ry="246.798" rx="246.822" cy="246.128" cx="-283.227"/><path d="M-285.905 355.873z" style="fill:none;stroke:#000;stroke-width:.994875px;stroke-linecap:butt;stroke-linejoin:miter;stroke-opacity:1"/><path style="fill:none;fill-opacity:1;stroke:#000;stroke-width:15.6535;stroke-linecap:round;stroke-linejoin:round;stroke-miterlimit:4;stroke-dasharray:none;stroke-opacity:1" d="M-350.001 297.399c42.423-11.127 86.254-21.45 144.78-23.376" transform="matrix(-1 0 0 1 -544.436 0)"/><path style="fill:none;stroke:#000;stroke-width:15.6535;stroke-linecap:round;stroke-linejoin:round;stroke-miterlimit:4;stroke-dasharray:none;stroke-opacity:1" d="M-200.915 255.483c-3.319 11.517-3.689 22.878 6.48 33.682" transform="matrix(-1 0 0 1 -544.436 0)"/><g><circle cy="139.875" cx="-271.605" style="fill:#000;fill-opacity:1;stroke:#000;stroke-width:15.6523;stroke-miterlimit:4;stroke-dasharray:none;stroke-opacity:1" r="5.007" transform="translate(-36.8 19.726)"/><circle cy="132.621" cx="-189.289" style="fill:#000;fill-opacity:1;stroke:#000;stroke-width:15.6535;stroke-miterlimit:4;stroke-dasharray:none;stroke-opacity:1" r="5.007" transform="translate(-36.8 19.726)"/></g></g><path style="fill:#4d4d4d;fill-opacity:1;stroke:#4d4d4d;stroke-width:1.48528;stroke-linecap:square;stroke-linejoin:miter;stroke-miterlimit:4;stroke-dasharray:none;stroke-opacity:1;paint-order:stroke fill markers" d="M-30.748 15.771c-2.629-.817-1.865 2.767-4.387 2.75-1.902-.705-2.827-3.156-5.256-2.576-2.787.026-5.715-.346-8.398.541-2.56.417-5.03 1.23-7.342 2.317-1.934 1.103-3.855 2.206-5.195 4.107-1.486 1.79-2.84 3.893-2.47 6.332 1.446.024 2.849-3.066 4.505-3.965 1.488-1.468 3.62-1.578 5.643-1.457 2.287-.218 4.427.8 6.013 2.367 2.155 1.96 2.185 3.618 2.33 6.336 0 1.356-.228 2.055-.597 2.567h5.642c.125-2.503-.12-5.076.39-7.518.894-1.845 2.66-3.823 4.882-3.865 2.384-.42 1.858 2.077 2.666 3.207 2.103.148 4.78.652 6.601-.242v-10.85c-1.676-.024-3.35-.08-5.027-.05z" transform="rotate(-15 21.825 -51.522) scale(.2422)"/><path style="fill:#a40;fill-opacity:1;stroke:#a40;stroke-width:1.48528;stroke-linecap:square;stroke-linejoin:miter;stroke-miterlimit:4;stroke-dasharray:none;stroke-opacity:1;paint-order:stroke fill markers" d="M-40.26 35.09h-5.642c-.213.295-.415.587-.8.754-.147 2.331-.099 4.672-.118 7.008.132 4.119-.47 8.194-.494 12.308.036 2.604-.351 5.17-.524 7.746.045 2.272-.571 4.627-.154 6.836 2.748.246 5.525.157 8.283.158 2.088.576 2.916-.77 2.385-2.656-.384-3.52-.677-7.051-.758-10.6-.225-2.495.08-5.072-.338-7.523-.347-3.275-.13-6.592-.219-9.885.067-1.654.314-3.94-1.62-4.088 0-.019-.002-.039 0-.058z" transform="rotate(-15 21.825 -51.522) scale(.2422)"/><path style="fill:#fff;fill-opacity:1;stroke:#000;stroke-width:15.7686;stroke-linecap:butt;stroke-linejoin:miter;stroke-miterlimit:4;stroke-dasharray:none;stroke-opacity:1" d="M-431.898 408.299c-53.054 92.174-119.474-127.31-28.309-101.49z" transform="matrix(.0594 0 0 .0594 33.063 .944)"/><path style="fill:#fff;fill-opacity:1;stroke:#000;stroke-width:12.4015;stroke-linecap:round;stroke-linejoin:round;stroke-miterlimit:4;stroke-dasharray:none;stroke-opacity:1" d="M-438.636 291.876c24.138-23.896 56.287 19.946 23.227 24.065 29.029-9.585 36.772 25.607 8.175 30.508 23.871-6.56 40.917 20.959 7.57 28.249 23.566-7.471 38.572 24.246 8.628 32.203l-14.907 3.378c-38.227 5.46-112.832-43.026-32.693-118.403z" transform="matrix(.0594 0 0 .0594 33.063 .944)"/></g></svg>