<svg xmlns="http://www.w3.org/2000/svg" viewBox="0 0 16.933 16.933" height="64" width="64"><defs><linearGradient id="a"><stop style="stop-color:#0083ff;stop-opacity:1" offset="0"/><stop style="stop-color:#fff;stop-opacity:1" offset="1"/></linearGradient></defs><path style="fill:#fc0;stroke:#000;stroke-width:1.93198;stroke-linecap:square;paint-order:stroke fill markers" d="M11.902 26.478c-.229-.132-.56-.444-.736-.694l-.32-.456-.029-7.22-.028-7.222.266-.545c.176-.359.419-.648.713-.847l.446-.303 3.157-.03 3.157-.03 1.104 1.11 1.103 1.108 4.685.002c4.33.002 4.718.017 5.114.197.852.387 1.308 1.25 1.308 2.478v.585H16.404l-.464.245c-.954.504-.94.461-2.028 6.444l-.974 5.362-.31.027c-.173.015-.492-.078-.726-.211z" transform="matrix(.56755 0 0 .56755 -4.277 -1.836)"/><path style="fill:#fd5;stroke:#000;stroke-width:1.932;stroke-linecap:round;stroke-linejoin:round;stroke-miterlimit:4;stroke-dasharray:none;paint-order:stroke fill markers" d="M13.95 26.781c0-.161 1.622-8.832 1.802-9.635.156-.693.297-1.065.469-1.237l.246-.245h16.427v-.369c0-.421.018-.43.376-.195.31.203.732.899.83 1.369.076.366-1.328 8.465-1.565 9.026-.163.385-.617.855-1.06 1.098-.287.157-1.144.177-8.921.204-4.732.016-8.604.01-8.604-.016z" transform="matrix(.56755 0 0 .56755 -4.277 -1.836)"/></svg>