<svg xmlns="http://www.w3.org/2000/svg" viewBox="0 0 16.933 16.933" height="64" width="64"><defs><linearGradient id="a"><stop style="stop-color:#0083ff;stop-opacity:1" offset="0"/><stop style="stop-color:#fff;stop-opacity:1" offset="1"/></linearGradient><path id="b" d="M.463 8.268H24.54v13.957H.463z"/></defs><g style="stroke:#0f0"><path style="fill:none;stroke:#0f0;stroke-width:.973852;stroke-linecap:round;stroke-linejoin:round;stroke-miterlimit:4;stroke-dasharray:none;stroke-opacity:1" d="M4.096 2.741a7.508 7.508 0 0 0-2.464-1.254M7.396 8.51C5.498 6.156 3.02 4.226 1.632 1.487c-.118.915-.145 1.833-.145 2.76M10.696 14.278c.78.604 1.602.993 2.463 1.255M7.396 8.51c1.897 2.353 4.374 4.284 5.763 7.023.118-.916.146-1.833.146-2.761" transform="matrix(-1 0 0 1 15.862 -.043)"/></g><g style="stroke:#0f0"><path d="M4.096 2.741a7.508 7.508 0 0 0-2.464-1.254M7.396 8.51C5.498 6.156 3.02 4.226 1.632 1.487c-.118.915-.145 1.833-.145 2.76M10.696 14.278c.78.604 1.602.993 2.463 1.255M7.396 8.51c1.897 2.353 4.374 4.284 5.763 7.023.118-.916.146-1.833.146-2.761" style="fill:none;stroke:#0f0;stroke-width:.973852;stroke-linecap:round;stroke-linejoin:round;stroke-miterlimit:4;stroke-dasharray:none;stroke-opacity:1" transform="translate(1.07 -.043)"/></g><text xml:space="preserve" style="font-style:normal;font-weight:400;font-size:10.5833px;line-height:1.25;font-family:sans-serif;white-space:pre;shape-inside:url(#b);fill:#f60;fill-opacity:1;stroke:none" transform="matrix(.49965 0 0 .49965 2.212 1.582)"><tspan x=".463" y="17.631"><tspan style="fill:#f60">10%</tspan></tspan></text></svg>