<svg xmlns="http://www.w3.org/2000/svg" xmlns:xlink="http://www.w3.org/1999/xlink" width="64" height="64" viewBox="0 0 16.933 16.933"><defs><linearGradient id="a"><stop offset="0" style="stop-color:#0083ff;stop-opacity:1"/><stop offset="1" style="stop-color:#fff;stop-opacity:1"/></linearGradient><linearGradient y2="2.818" x2="9.262" y1="-.531" x1="9.262" gradientUnits="userSpaceOnUse" id="b" xlink:href="#a"/></defs><g transform="matrix(2.27596 0 0 2.27594 -6.939 12.876)"><path style="fill:url(#b);fill-opacity:1;stroke:none;stroke-width:.200974;stroke-linecap:square;stroke-linejoin:miter;stroke-miterlimit:4;stroke-dasharray:none;paint-order:fill markers stroke" d="M7.611-1.245h3.366v3.366H7.611z" transform="translate(-.742 -.587)"/><circle r=".607" cy="-.861" cx="7.794" style="fill:gold;fill-opacity:1;stroke:none;stroke-width:.285893;stroke-linecap:square;stroke-linejoin:miter;stroke-miterlimit:4;stroke-dasharray:none;paint-order:fill markers stroke"/><path d="M10.235-.153c-.891.003-1.841.098-2.531.626-.322.246-.59.656-.59 1.061h3.112z" style="fill:#337d00;fill-opacity:.971246;stroke:none;stroke-width:.0961564px;stroke-linecap:butt;stroke-linejoin:miter;stroke-opacity:1"/><path style="fill:none;fill-opacity:.971246;stroke:#a40;stroke-width:.220276;stroke-linecap:square;stroke-linejoin:miter;stroke-miterlimit:4;stroke-dasharray:none;stroke-opacity:1;paint-order:fill markers stroke" d="M6.879-1.822h3.346v3.346H6.879z"/></g><path d="m5.768 15.585 1.365-1.365-1.365-1.365M3.19 10.262c-.291 1.09-.44 1.824-.16 2.67.136.413.451.797.836.998.97.505 1.57.29 3.266.29M15.502 5.765 14.136 7.13l-1.365-1.365M10.18 3.19c1.089-.292 1.824-.44 2.67-.161.413.136.797.452.998.836.505.97.29 1.57.29 3.266" style="fill:none;stroke:#338000;stroke-width:1.00433;stroke-linecap:round;stroke-linejoin:round;stroke-miterlimit:4;stroke-dasharray:none;stroke-opacity:1" transform="matrix(1.01464 0 0 1.01464 -.665 -.653)"/><path d="M7.57 4.548a99.85 99.85 0 0 1-.432-.215s.196-.099.437-.218l.438-.217.39.195.432.218.042.021-.436.215c-.24.119-.437.215-.438.215l-.433-.214z" style="fill:green;fill-opacity:1;stroke:#338000;stroke-width:.00141496;stroke-linecap:square;stroke-linejoin:miter;stroke-miterlimit:4;stroke-dasharray:none;paint-order:stroke fill markers" transform="matrix(4.12298 0 0 3.71819 -28.6 -13.829)"/><path d="m7.532 5.678-.437-.22V4.38l.439.217.437.217V5.897c-.002 0-.2-.098-.44-.219z" style="fill:#a05a2c;fill-opacity:1;stroke:#338000;stroke-width:.00139182;stroke-linecap:square;stroke-linejoin:miter;stroke-miterlimit:4;stroke-dasharray:none;paint-order:stroke fill markers" transform="matrix(4.12298 0 0 3.71819 -28.6 -13.829)"/><path d="M8.036 5.358V4.81l.44-.217.443-.218c.001 0 .002.242.002.538v.537l-.439.225-.443.227c-.004.001-.004-.025-.003-.545z" style="fill:#a05a2c;fill-opacity:1;stroke:#338000;stroke-width:.00139925;stroke-linecap:square;stroke-linejoin:miter;stroke-miterlimit:4;stroke-dasharray:none;paint-order:stroke fill markers" transform="matrix(4.12298 0 0 3.71819 -28.6 -13.829)"/><path style="fill:none;stroke:#000;stroke-width:.079375;stroke-linecap:butt;stroke-linejoin:miter;stroke-miterlimit:4;stroke-dasharray:none;stroke-opacity:1" d="M8.004 4.8v1.149m-.942-1.617.942.467.947-.467m-1.89 0 .951-.471.939.471v1.133l-.943.484-.946-.476z" transform="matrix(4.12298 0 0 3.71819 -28.6 -13.829)"/></svg>