<svg xmlns="http://www.w3.org/2000/svg" xmlns:xlink="http://www.w3.org/1999/xlink" viewBox="0 0 16.933 16.933" height="64" width="64"><defs><linearGradient y2="2.818" x2="9.262" y1="-.531" x1="9.262" gradientUnits="userSpaceOnUse" id="b" xlink:href="#a"/><linearGradient id="a"><stop offset="0" style="stop-color:#0083ff;stop-opacity:1"/><stop offset="1" style="stop-color:#fff;stop-opacity:1"/></linearGradient></defs><g transform="matrix(4.1907 0 0 4.19065 -27.373 9.09)"><path style="fill:url(#b);fill-opacity:1;stroke:none;stroke-width:.200974;stroke-linecap:square;stroke-linejoin:miter;stroke-miterlimit:4;stroke-dasharray:none;paint-order:fill markers stroke" d="M7.611-1.245h3.366v3.366H7.611z" transform="translate(-.742 -.587)"/><circle style="fill:gold;fill-opacity:1;stroke:none;stroke-width:.285893;stroke-linecap:square;stroke-linejoin:miter;stroke-miterlimit:4;stroke-dasharray:none;paint-order:fill markers stroke" cx="7.794" cy="-.861" r=".607"/><path style="fill:#337d00;fill-opacity:.971246;stroke:none;stroke-width:.0961564px;stroke-linecap:butt;stroke-linejoin:miter;stroke-opacity:1" d="M10.235-.153c-.891.003-1.841.098-2.531.626-.322.246-.59.656-.59 1.061h3.112z"/><path style="fill:none;fill-opacity:.971246;stroke:#a40;stroke-width:.220276;stroke-linecap:square;stroke-linejoin:miter;stroke-miterlimit:4;stroke-dasharray:none;stroke-opacity:1;paint-order:fill markers stroke" d="M6.879-1.822h3.346v3.346H6.879z"/></g><path style="fill:#fea;fill-opacity:1;stroke:none;stroke-width:.0631928;stroke-linecap:round;stroke-linejoin:round;paint-order:stroke fill markers" d="M14.628 32.821c-.64-.394-1.272-.826-1.76-1.406.038-.427.765-.29 1.022-.614.67-.384 1.19-.965 1.709-1.52.525-.076.933.46 1.424.607.378.257 1.164.374.797.971-.251.885-.346 1.85-.108 2.75.256.625-.635.217-.926.172a10.262 10.262 0 0 1-2.158-.96z" transform="rotate(1.996 187.601 128.625) scale(.65828)"/><path d="M17.643 34.524a4.617 4.617 0 0 1-.901-.137 8.964 8.964 0 0 1-.687-.214 17.706 17.706 0 0 0-.231-.092 8.271 8.271 0 0 1-.703-.319c-.223-.11-.343-.174-.709-.38-.363-.203-.974-.624-1.216-.838l-.15-.133c-.372-.328-.68-.703-.844-1.031-.21-.42-.19-.66.066-.78.055-.026.106-.032.295-.032.264 0 .41-.026.64-.111.444-.166.868-.462 1.357-.948.253-.25.37-.382.599-.671.179-.226.23-.263.375-.263.218 0 .376.189.34.405-.023.134-.342.531-.778.97-.346.347-.396.392-.663.594-.478.36-.94.587-1.4.686a.364.364 0 0 0-.095.028c0 .057.407.5.657.713.132.113.418.333.434.333.02 0 .19-.052.249-.077.168-.07.417-.206.551-.302.15-.107.458-.397.515-.486.016-.025.032-.043.036-.04.007.008-.07.231-.111.322a2.713 2.713 0 0 1-.125.284c-.11.226-.27.473-.388.603-.047.051-.081.103-.077.114a.362.362 0 0 0 .105.075l.188.104c.139.08.563.296.578.296.008 0 .019-.028.025-.062.053-.286.299-.772.57-1.125.05-.066.094-.113.097-.105a.983.983 0 0 1-.036.17c-.106.4-.096 1.02.022 1.351l.027.077.226.076c.338.114.568.17.904.222.143.022.349.033.349.018a.916.916 0 0 0-.034-.083c-.077-.173-.153-.483-.198-.804a7.362 7.362 0 0 1 .015-1.058 7.863 7.863 0 0 1 .202-1.016c.04-.162.173-.555.214-.638a.343.343 0 0 1 .605-.03c.06.095.067.198.023.32-.02.054-.047.132-.06.173a10.27 10.27 0 0 0-.166.587l-.041.182a5.194 5.194 0 0 0-.114 1.035c0 .59.106.982.36 1.332.093.127.127.225.11.317-.035.196-.182.299-.511.36-.09.016-.375.033-.496.028z" style="fill:#fc0;fill-opacity:1;stroke:none;stroke-width:.0783124;stroke-linecap:round;stroke-linejoin:round;paint-order:stroke fill markers" transform="rotate(1.996 187.601 128.625) scale(.65828)"/><path d="M18.437 30.757a30.699 30.699 0 0 0-.529-.283 494.325 494.325 0 0 1-1.819-.968c-.1-.052-.219-.115-.264-.14l-.232-.124a41.235 41.235 0 0 1-.616-.33.923.923 0 0 1 .077-.118c.162-.23.357-.368.655-.462a.863.863 0 0 1 .33-.046c.106 0 .21.009.249.022.221.072.271.096.785.368a255.934 255.934 0 0 0 .488.26c.052.03.177.097.397.214.237.127.411.28.529.464.06.095.086.149.142.293a1.373 1.373 0 0 1-.016.724c-.057.152-.067.173-.08.173a.598.598 0 0 1-.096-.047z" style="fill:#f09c00;fill-opacity:1;stroke:none;stroke-width:.0783124;stroke-linecap:round;stroke-linejoin:round;paint-order:stroke fill markers" transform="rotate(1.996 187.601 128.625) scale(.65828)"/><path d="M17.671 29.272a75.367 75.367 0 0 0-.843-.45 1.682 1.682 0 0 1-.17-.097c-.015-.015.134-.264.675-1.126a124.429 124.429 0 0 0 .727-1.166c.006-.005.076-.114.156-.244.177-.286.205-.31.365-.309a.39.39 0 0 1 .207.047.56.56 0 0 1 .25.206c.067.103.06.192-.033.388a2.86 2.86 0 0 0-.069.152c0 .003-.025.06-.055.127-.03.066-.08.177-.109.245a7.293 7.293 0 0 1-.084.19 14.52 14.52 0 0 1-.16.353 1.82 1.82 0 0 0-.055.128c0 .004-.026.063-.058.132a2.24 2.24 0 0 0-.057.131c0 .004-.023.057-.051.119a39.643 39.643 0 0 0-.206.46 80.156 80.156 0 0 0-.263.595c-.077.175-.072.172-.167.119z" style="fill:#f09c00;fill-opacity:1;stroke:none;stroke-width:.0783124;stroke-linecap:round;stroke-linejoin:round;paint-order:stroke fill markers" transform="rotate(1.996 187.601 128.625) scale(.65828)"/></svg>