<svg xmlns="http://www.w3.org/2000/svg" viewBox="0 0 16.933 16.933" height="64" width="64"><defs><linearGradient id="a"><stop style="stop-color:#0083ff;stop-opacity:1" offset="0"/><stop style="stop-color:#fff;stop-opacity:1" offset="1"/></linearGradient><path id="b" d="M-3.225 1.24h15.858v11.542H-3.225z"/></defs><path style="fill:#00f;stroke:#00f;stroke-width:.207507px;stroke-linecap:butt;stroke-linejoin:miter;stroke-opacity:1" d="m8.4 4.68-5.009 8.677h4.854z" transform="matrix(0 1.0682 -1.0682 0 14.852 4.412)"/><path d="m-.51 3.813 8.893-5.135v4.976z" style="fill:navy;stroke:navy;stroke-width:.212696px;stroke-linecap:butt;stroke-linejoin:miter;stroke-opacity:1" transform="matrix(0 1.0682 -1.0682 0 14.852 4.412)"/><g><path style="fill:none;stroke:#0f0;stroke-width:.264583px;stroke-linecap:butt;stroke-linejoin:miter;stroke-opacity:1" d="M8.615 6.515c.26-.227.596-.588.596-.942m-.596-.943c.26.227.596.588.596.943M4.746 7.392c.271-1.972 2.702-1.798 4.189-1.763l.276-.056" transform="matrix(1.38256 0 0 1.38256 -2.92 -1.229)"/><text xml:space="preserve" style="font-style:normal;font-weight:400;font-size:3.175px;line-height:1.25;font-family:sans-serif;white-space:pre;shape-inside:url(#b);fill:#0f0;fill-opacity:1;stroke:none" transform="matrix(1.11598 0 0 1.11598 6.612 1.097)"><tspan x="-3.225" y="4.049"><tspan style="font-size:3.175px;fill:#0f0">90°</tspan></tspan></text></g></svg>