<svg xmlns="http://www.w3.org/2000/svg" xmlns:xlink="http://www.w3.org/1999/xlink" width="64" height="64" viewBox="0 0 16.933 16.933"><defs><linearGradient id="a"><stop offset="0" style="stop-color:#0083ff;stop-opacity:1"/><stop offset="1" style="stop-color:#fff;stop-opacity:1"/></linearGradient><linearGradient y2="2.818" x2="9.262" y1="-.531" x1="9.262" gradientUnits="userSpaceOnUse" id="b" xlink:href="#a"/></defs><path transform="matrix(1.22092 0 0 1.22092 -5.212 -6.861)" d="M16.593 18.47c.194-.143.184.022.184-3.144 0-2.877 0-2.894-.065-2.983a.585.585 0 0 0-.174-.144c-.102-.053-.408-.055-5.401-.048l-5.293.008-.086.08c-.178.164-.172.044-.17 3.115.002 3.157-.011 2.973.217 3.126l.107.072 5.296-.008 5.296-.008z" style="fill:#0071cf;fill-opacity:1;stroke:none;stroke-width:.031617;stroke-linecap:round;stroke-linejoin:round;stroke-miterlimit:4;stroke-dasharray:none;paint-order:stroke fill markers"/><path transform="matrix(1.22092 0 0 1.22092 -5.212 -6.861)" d="M4.48 19.096c-.002-.199-.002-13.172 0-13.21.001-.014.257-.024.57-.024h.568l9.186.01.56-.02.56-.021 1.003 1.002 1.002 1.001V11.8c0 2.18-.01 4.755-.02 5.722l-.022 1.757H4.482z" style="fill:#0071cf;fill-opacity:1;stroke:none;stroke-width:.031617;stroke-linecap:round;stroke-linejoin:round;stroke-miterlimit:4;stroke-dasharray:none;paint-order:stroke fill markers"/><path style="fill:#004a92;fill-opacity:1;stroke:none;stroke-width:.264999;stroke-linecap:round;stroke-linejoin:round;stroke-miterlimit:4;stroke-dasharray:none;paint-order:stroke fill markers" d="M1.514 1.549h2.514v1.327H1.514z" transform="matrix(4.61452 0 0 4.61452 -5.212 -6.861)"/><path style="fill:#aec9eb;fill-opacity:1;stroke:none;stroke-width:.265494;stroke-linecap:round;stroke-linejoin:round;stroke-miterlimit:4;stroke-dasharray:none;paint-order:stroke fill markers" d="M2.278 1.549h1.75v1.327h-1.75z" transform="matrix(4.61452 0 0 4.61452 -5.212 -6.861)"/><path transform="matrix(1.22092 0 0 1.22092 -5.212 -6.861)" d="M15.183 13.753v-.41H7.196v.82h7.987zM15.176 15.34l.009-.419H7.196v.853l3.986-.008 3.985-.008zM15.183 16.942v-.41H7.196v.82h7.987z" style="fill:#fff;fill-opacity:1;stroke:none;stroke-width:.031617;stroke-linecap:round;stroke-linejoin:round;stroke-miterlimit:4;stroke-dasharray:none;paint-order:stroke fill markers"/><path transform="matrix(1.22092 0 0 1.22092 -5.212 -6.861)" d="M5.843 18.435c-.201-.1-.193.025-.193-3.094 0-2.635.004-2.842.055-2.945.03-.06.09-.127.134-.15.062-.03 1.182-.037 5.383-.031 5.256.007 5.305.008 5.37.07a.617.617 0 0 1 .102.133c.049.094.051 5.75.002 5.856a.444.444 0 0 1-.118.136c-.084.062-.14.063-5.357.07-4.87.007-5.28.003-5.378-.045z" style="fill:#fff;fill-opacity:1;stroke:none;stroke-width:.031617;stroke-linecap:round;stroke-linejoin:round;stroke-miterlimit:4;stroke-dasharray:none;paint-order:stroke fill markers"/><path transform="matrix(1.22092 0 0 1.22092 -5.212 -6.861)" d="M7.228 13.753v-.378h7.923v.758H7.228zM7.228 15.348v-.363h7.923v.726H7.228zM7.228 16.942v-.38h7.923v.759H7.228z" style="fill:#aaa;fill-opacity:1;stroke:none;stroke-width:.031617;stroke-linecap:round;stroke-linejoin:round;stroke-miterlimit:4;stroke-dasharray:none;paint-order:stroke fill markers"/><path d="M3.131 2.197V1.65h.62V2.745h-.62z" style="fill:#2f2f2f;fill-opacity:1;stroke:none;stroke-width:.00898704;stroke-linecap:round;stroke-linejoin:round;stroke-miterlimit:4;stroke-dasharray:none;paint-order:stroke fill markers" transform="matrix(4.61452 0 0 4.61452 -5.212 -6.861)"/><path style="fill:none;stroke:#338000;stroke-width:1.00433;stroke-linecap:round;stroke-linejoin:round;stroke-miterlimit:4;stroke-dasharray:none;stroke-opacity:1" d="m8.666 15.596 1.365-1.365-1.365-1.365M6.09 10.274c-.292 1.089-.44 1.824-.161 2.67.136.412.452.797.836.998.97.505 1.57.29 3.266.29"/><g transform="matrix(1.45333 0 0 1.45333 1.308 13.924)"><path style="fill:url(#b);fill-opacity:1;stroke:none;stroke-width:.200974;stroke-linecap:square;stroke-linejoin:miter;stroke-miterlimit:4;stroke-dasharray:none;paint-order:fill markers stroke" d="M7.611-1.245h3.366v3.366H7.611z" transform="translate(-.742 -.587)"/><circle r=".607" cy="-.861" cx="7.794" style="fill:gold;fill-opacity:1;stroke:none;stroke-width:.285893;stroke-linecap:square;stroke-linejoin:miter;stroke-miterlimit:4;stroke-dasharray:none;paint-order:fill markers stroke"/><path d="M10.235-.153c-.891.003-1.841.098-2.531.626-.322.246-.59.656-.59 1.061h3.112z" style="fill:#337d00;fill-opacity:.971246;stroke:none;stroke-width:.0961564px;stroke-linecap:butt;stroke-linejoin:miter;stroke-opacity:1"/><path style="fill:none;fill-opacity:.971246;stroke:#a40;stroke-width:.220276;stroke-linecap:square;stroke-linejoin:miter;stroke-miterlimit:4;stroke-dasharray:none;stroke-opacity:1;paint-order:fill markers stroke" d="M6.879-1.822h3.346v3.346H6.879z"/></g></svg>