<svg xmlns="http://www.w3.org/2000/svg" width="64" height="64" viewBox="0 0 16.933 16.933"><defs><linearGradient id="a"><stop offset="0" style="stop-color:#0083ff;stop-opacity:1"/><stop offset="1" style="stop-color:#fff;stop-opacity:1"/></linearGradient></defs><path transform="translate(-5.212 -6.861) scale(1.22092)" d="M16.593 18.47c.194-.143.184.022.184-3.144 0-2.877 0-2.894-.065-2.983a.585.585 0 0 0-.174-.144c-.102-.053-.408-.055-5.401-.048l-5.293.008-.086.08c-.178.164-.172.044-.17 3.115.002 3.157-.011 2.973.217 3.126l.107.072 5.296-.008 5.296-.008z" style="fill:#0071cf;fill-opacity:1;stroke:none;stroke-width:.031617;stroke-linecap:round;stroke-linejoin:round;stroke-miterlimit:4;stroke-dasharray:none;paint-order:stroke fill markers"/><path transform="translate(-5.212 -6.861) scale(1.22092)" d="M4.48 19.096c-.002-.199-.002-13.172 0-13.21.001-.014.257-.024.57-.024h.568l9.186.01.56-.02.56-.021 1.003 1.002 1.002 1.001V11.8c0 2.18-.01 4.755-.02 5.722l-.022 1.757H4.482z" style="fill:#0071cf;fill-opacity:1;stroke:none;stroke-width:.031617;stroke-linecap:round;stroke-linejoin:round;stroke-miterlimit:4;stroke-dasharray:none;paint-order:stroke fill markers"/><path style="fill:#004a92;fill-opacity:1;stroke:none;stroke-width:.264999;stroke-linecap:round;stroke-linejoin:round;stroke-miterlimit:4;stroke-dasharray:none;paint-order:stroke fill markers" d="M1.514 1.549h2.514v1.327H1.514z" transform="translate(-5.212 -6.861) scale(4.61452)"/><path style="fill:#aec9eb;fill-opacity:1;stroke:none;stroke-width:.265494;stroke-linecap:round;stroke-linejoin:round;stroke-miterlimit:4;stroke-dasharray:none;paint-order:stroke fill markers" d="M2.278 1.549h1.75v1.327h-1.75z" transform="translate(-5.212 -6.861) scale(4.61452)"/><path transform="translate(-5.212 -6.861) scale(1.22092)" d="M15.183 13.753v-.41H7.196v.82h7.987zm-.007 1.587.009-.419H7.196v.853l3.986-.008 3.985-.008zm.007 1.602v-.41H7.196v.82h7.987z" style="fill:#fff;fill-opacity:1;stroke:none;stroke-width:.031617;stroke-linecap:round;stroke-linejoin:round;stroke-miterlimit:4;stroke-dasharray:none;paint-order:stroke fill markers"/><path transform="translate(-5.212 -6.861) scale(1.22092)" d="M5.843 18.435c-.201-.1-.193.025-.193-3.094 0-2.635.004-2.842.055-2.945a.39.39 0 0 1 .134-.15c.062-.03 1.182-.037 5.383-.031 5.256.007 5.305.008 5.37.07a.617.617 0 0 1 .102.133c.049.094.051 5.75.002 5.856a.444.444 0 0 1-.118.136c-.084.062-.14.063-5.357.07-4.87.007-5.28.003-5.378-.045z" style="fill:#fff;fill-opacity:1;stroke:none;stroke-width:.031617;stroke-linecap:round;stroke-linejoin:round;stroke-miterlimit:4;stroke-dasharray:none;paint-order:stroke fill markers"/><path transform="translate(-5.212 -6.861) scale(1.22092)" d="M7.228 13.753v-.378h7.923v.758H7.228zm0 1.595v-.363h7.923v.726H7.228zm0 1.594v-.38h7.923v.759H7.228z" style="fill:#aaa;fill-opacity:1;stroke:none;stroke-width:.031617;stroke-linecap:round;stroke-linejoin:round;stroke-miterlimit:4;stroke-dasharray:none;paint-order:stroke fill markers"/><path d="M3.131 2.197V1.65h.62v1.095h-.62z" style="fill:#2f2f2f;fill-opacity:1;stroke:none;stroke-width:.00898704;stroke-linecap:round;stroke-linejoin:round;stroke-miterlimit:4;stroke-dasharray:none;paint-order:stroke fill markers" transform="translate(-5.212 -6.861) scale(4.61452)"/></svg>