<svg xmlns="http://www.w3.org/2000/svg" viewBox="0 0 16.933 16.933" height="64" width="64"><path transform="matrix(1.22092 0 0 1.22092 -5.212 -6.861)" d="M16.593 18.47c.194-.143.184.022.184-3.144 0-2.877 0-2.894-.065-2.983a.585.585 0 0 0-.174-.144c-.102-.053-.408-.055-5.401-.048l-5.293.008-.086.08c-.178.164-.172.044-.17 3.115.002 3.157-.011 2.973.217 3.126l.107.072 5.296-.008 5.296-.008z" style="fill:#0071cf;fill-opacity:1;stroke:none;stroke-width:.031617;stroke-linecap:round;stroke-linejoin:round;stroke-miterlimit:4;stroke-dasharray:none;paint-order:stroke fill markers"/><path transform="matrix(1.22092 0 0 1.22092 -5.212 -6.861)" d="M4.48 19.096c-.002-.199-.002-13.172 0-13.21.001-.014.257-.024.57-.024h.568l9.186.01.56-.02.56-.021 1.003 1.002 1.002 1.001V11.8c0 2.18-.01 4.755-.02 5.722l-.022 1.757H4.482z" style="fill:#0071cf;fill-opacity:1;stroke:none;stroke-width:.031617;stroke-linecap:round;stroke-linejoin:round;stroke-miterlimit:4;stroke-dasharray:none;paint-order:stroke fill markers"/><path style="fill:#004a92;fill-opacity:1;stroke:none;stroke-width:.264999;stroke-linecap:round;stroke-linejoin:round;stroke-miterlimit:4;stroke-dasharray:none;paint-order:stroke fill markers" d="M1.514 1.549h2.514v1.327H1.514z" transform="matrix(4.61452 0 0 4.61452 -5.212 -6.861)"/><path style="fill:#aec9eb;fill-opacity:1;stroke:none;stroke-width:.265494;stroke-linecap:round;stroke-linejoin:round;stroke-miterlimit:4;stroke-dasharray:none;paint-order:stroke fill markers" d="M2.278 1.549h1.75v1.327h-1.75z" transform="matrix(4.61452 0 0 4.61452 -5.212 -6.861)"/><path transform="matrix(1.22092 0 0 1.22092 -5.212 -6.861)" d="M15.183 13.753v-.41H7.196v.82h7.987zM15.176 15.34l.009-.419H7.196v.853l3.986-.008 3.985-.008zM15.183 16.942v-.41H7.196v.82h7.987z" style="fill:#fff;fill-opacity:1;stroke:none;stroke-width:.031617;stroke-linecap:round;stroke-linejoin:round;stroke-miterlimit:4;stroke-dasharray:none;paint-order:stroke fill markers"/><path transform="matrix(1.22092 0 0 1.22092 -5.212 -6.861)" d="M5.843 18.435c-.201-.1-.193.025-.193-3.094 0-2.635.004-2.842.055-2.945.03-.06.09-.127.134-.15.062-.03 1.182-.037 5.383-.031 5.256.007 5.305.008 5.37.07a.617.617 0 0 1 .102.133c.049.094.051 5.75.002 5.856a.444.444 0 0 1-.118.136c-.084.062-.14.063-5.357.07-4.87.007-5.28.003-5.378-.045z" style="fill:#fff;fill-opacity:1;stroke:none;stroke-width:.031617;stroke-linecap:round;stroke-linejoin:round;stroke-miterlimit:4;stroke-dasharray:none;paint-order:stroke fill markers"/><path transform="matrix(1.22092 0 0 1.22092 -5.212 -6.861)" d="M7.228 13.753v-.378h7.923v.758H7.228zM7.228 15.348v-.363h7.923v.726H7.228zM7.228 16.942v-.38h7.923v.759H7.228z" style="fill:#aaa;fill-opacity:1;stroke:none;stroke-width:.031617;stroke-linecap:round;stroke-linejoin:round;stroke-miterlimit:4;stroke-dasharray:none;paint-order:stroke fill markers"/><path d="M3.131 2.197V1.65h.62V2.745h-.62z" style="fill:#2f2f2f;fill-opacity:1;stroke:none;stroke-width:.00898704;stroke-linecap:round;stroke-linejoin:round;stroke-miterlimit:4;stroke-dasharray:none;paint-order:stroke fill markers" transform="matrix(4.61452 0 0 4.61452 -5.212 -6.861)"/><path style="fill:none;stroke:#338000;stroke-width:.365;stroke-linecap:round;stroke-linejoin:round;stroke-miterlimit:4;stroke-dasharray:none;stroke-opacity:1" d="m3.247 5.766.497-.496-.497-.496m-.936-.942c-.106.396-.16.663-.058.97.05.15.164.29.304.363.352.183.57.105 1.187.105" transform="matrix(2.7516 0 0 2.7516 -.27 -.27)"/><g><path d="M7.57 4.548a99.85 99.85 0 0 1-.432-.215s.196-.099.437-.218l.438-.217.39.195.432.218.042.021-.436.215c-.24.119-.437.215-.438.215l-.433-.214z" style="fill:green;fill-opacity:1;stroke:#338000;stroke-width:.00141496;stroke-linecap:square;stroke-linejoin:miter;stroke-miterlimit:4;stroke-dasharray:none;paint-order:stroke fill markers" transform="matrix(2.75206 0 0 2.75141 -8.273 .078)"/><path d="m7.532 5.678-.437-.22V4.38l.439.217.437.217V5.897c-.002 0-.2-.098-.44-.219z" style="fill:#a05a2c;fill-opacity:1;stroke:#338000;stroke-width:.00139182;stroke-linecap:square;stroke-linejoin:miter;stroke-miterlimit:4;stroke-dasharray:none;paint-order:stroke fill markers" transform="matrix(2.75206 0 0 2.75141 -8.273 .078)"/><path d="M8.036 5.358V4.81l.44-.217.443-.218c.001 0 .002.242.002.538v.537l-.439.225-.443.227c-.004.001-.004-.025-.003-.545z" style="fill:#a05a2c;fill-opacity:1;stroke:#338000;stroke-width:.00139925;stroke-linecap:square;stroke-linejoin:miter;stroke-miterlimit:4;stroke-dasharray:none;paint-order:stroke fill markers" transform="matrix(2.75206 0 0 2.75141 -8.273 .078)"/><path style="fill:none;stroke:#000;stroke-width:.079375;stroke-linecap:butt;stroke-linejoin:miter;stroke-miterlimit:4;stroke-dasharray:none;stroke-opacity:1" d="M8.004 4.8v1.149m-.942-1.617.942.467.947-.467m-1.89 0 .951-.471.939.471v1.133l-.943.484-.946-.476z" transform="matrix(2.75206 0 0 2.75141 -8.273 .078)"/><g style="font-style:normal;font-weight:400;font-size:3.84606px;line-height:1.25;font-family:sans-serif;fill:#000;fill-opacity:1;stroke:none;stroke-width:.0961514"><text xml:space="preserve" style="font-style:normal;font-weight:400;font-size:1.44725px;line-height:1.25;font-family:sans-serif;fill:#ff7f2a;fill-opacity:1;stroke:none;stroke-width:.00347887" x="6.943" y="5.48" transform="translate(-7.193 .604) scale(2.61874)" aria-label="E"><tspan x="6.943" y="5.48" style="fill:#ff7f2a;stroke-width:.00347887">E+</tspan></text></g></g></svg>